# xmcd
#
# Track frame offsets: 
#        150
#        12392
#        26217
#        42824
#        55603
#        68381
#        84409
#        97613
#        110800
#        126926
#        142552
#        153051
#        167798
#        182806
#        195740
#        206741
#        219514
#        232637
#        246949
#        262378
#
# Disc length: 3663 seconds
#
# Revision: 4
# Processed by: cddbd v1.5.2PL0 Copyright (c) Steve Scherf et al.
# Submitted via: ExactAudioCopyFreeDBPlugin 1.0
#
DISCID=080e4d14
DTITLE=Tom Astor - Highway Dreams - 40 Diesel-Country-Songs [CD 1)
DYEAR=2011
DGENRE=Country
TTITLE0=Lass dich nie ganz unterkriegen (My Hearts's In Idaho)
TTITLE1=Morgensonne (Morning Sun)
TTITLE2=Wir nannten ihn Jim Small (Jim Small)
TTITLE3=Kleiner Streuner (Rocky Mountain Memories)
TTITLE4=Seit wir zwei zusammen Fahren (Rollin'Home)
TTITLE5=Alaska Highway
TTITLE6=Ja, dann gibt's Chaos (Keep On Rolling)
TTITLE7=Morgen fahr ich nach Lousiana
TTITLE8=Geistertruck 2
TTITLE9=Geh nie auf den Bock (such dir 'nen besseren Job)
TTITLE10=Wir sind zwei gute Freunde (A Buddy Of Mine)
TTITLE11=Egal ob Kopf oder Zahl
TTITLE12=Bei dir brennt noch Licht
TTITLE13=Ich nehm' mir Zeit
TTITLE14=Ein paar Narben auf der Seele (I Love It Through And Through)
TTITLE15=Noch 100 Kilometer
TTITLE16=Alle Strassen dieser Welt
TTITLE17=Ich bin ein einfacher Mann (Truck Drivin' Man)
TTITLE18=Ein Lied für Luise (A Song For Louise)
TTITLE19=Heisses Eis
EXTD=
EXTT0=\n
EXTT1=
EXTT2=
EXTT3=
EXTT4=
EXTT5=
EXTT6=
EXTT7=
EXTT8=
EXTT9=
EXTT10=
EXTT11=
EXTT12=
EXTT13=
EXTT14=
EXTT15=
EXTT16=
EXTT17=
EXTT18=
EXTT19=
PLAYORDER=
